<svg xmlns="http://www.w3.org/2000/svg" xmlns:xlink="http://www.w3.org/1999/xlink" width="500" height="407.36"><rect width="500" height="407.36" rx="5" ry="5" class="a"/><svg y="0%" x="0%"><circle cx="20" cy="20" r="6" fill="#ff5f58"/><circle cx="40" cy="20" r="6" fill="#ffbd2e"/><circle cx="60" cy="20" r="6" fill="#18c132"/></svg><svg height="347.36" viewBox="0 0 46 34.736" width="460" x="15" xmlns="http://www.w3.org/2000/svg" xmlns:xlink="http://www.w3.org/1999/xlink" y="50"><style>@keyframes o{0%{transform:translateX(0)}2.1%{transform:translateX(-92px)}2.4%{transform:translateX(-184px)}8.5%{transform:translateX(-322px)}13.5%{transform:translateX(-414px)}16.8%{transform:translateX(-460px)}22%{transform:translateX(-506px)}23.9%{transform:translateX(-552px)}28.4%{transform:translateX(-644px)}30.5%{transform:translateX(-736px)}33.4%{transform:translateX(-828px)}36%{transform:translateX(-920px)}39.4%{transform:translateX(-966px)}42.5%{transform:translateX(-1012px)}45.6%{transform:translateX(-1058px)}61.7%{transform:translateX(-1334px)}62%{transform:translateX(-1472px)}62.3%{transform:translateX(-1564px)}73.6%{transform:translateX(-1656px)}78.3%{transform:translateX(-1748px)}81.5%{transform:translateX(-1840px)}85.1%{transform:translateX(-1932px)}87.7%{transform:translateX(-2024px)}87.9%{transform:translateX(-2070px)}96.6%{transform:translateX(-2116px)}to{transform:translateX(-2392px)}}.a{fill:#282d35}.f,.h{fill:#b9c0cb;white-space:pre}.h{fill:#a8cc8c;font-weight:700}.j,.k,.l,.q,.r{fill:#005fd7;white-space:pre}.k,.l,.q,.r{fill:#555}.l,.q,.r{fill:#00afff}.q,.r{fill:red}.r{fill:#00afff;text-decoration:underline}</style><g font-family="Monaco,Consolas,Menlo,'Bitstream Vera Sans Mono','Powerline Symbols',monospace" font-size="1.67"><defs><symbol id="1"><text y="1.67" class="f">╭─</text><text x="2.004" y="1.67" style="white-space:pre" fill="#df005f">kabir</text><text x="7.014" y="1.67" class="f">@</text><text x="8.016" y="1.67" class="h">KabLaptop</text><text x="17.034" y="1.67" class="f">::</text><text x="19.038" y="1.67" style="white-space:pre" fill="#87ff00">~</text></symbol><symbol id="2"><text y="1.67" class="f">╰─</text><text x="2.004" y="1.67" class="h">❯</text></symbol><symbol id="3"><text y="1.67" class="f">╰─</text><text x="2.004" y="1.67" class="h">❯</text><text x="4.008" y="1.67" class="j">cowsay</text><text x="11.022" y="1.67" class="k">fancy</text></symbol><symbol id="4"><text y="1.67" class="f">╰─</text><text x="2.004" y="1.67" class="h">❯</text><text x="4.008" y="1.67" class="j">cowsay</text><text x="11.022" y="1.67" class="l">fancy</text></symbol><symbol id="5"><text x="1.002" y="1.67" class="f">_______</text></symbol><symbol id="6"><text y="1.67" class="f">&lt;</text><text x="2.004" y="1.67" class="f">fancy</text><text x="8.016" y="1.67" class="f">&gt;</text></symbol><symbol id="7"><text x="1.002" y="1.67" class="f">-------</text></symbol><symbol id="8"><text x="8.016" y="1.67" class="f">\</text><text x="12.024" y="1.67" class="f">^__^</text></symbol><symbol id="9"><text x="9.018" y="1.67" class="f">\</text><text x="12.024" y="1.67" class="f">(oo)\_______</text></symbol><symbol id="10"><text x="12.024" y="1.67" class="f">(__)\</text><text x="24.048" y="1.67" class="f">)\/\</text></symbol><symbol id="11"><text x="16.032" y="1.67" class="f">||----w</text><text x="24.048" y="1.67" class="f">|</text></symbol><symbol id="12"><text x="16.032" y="1.67" class="f">||</text><text x="23.046" y="1.67" class="f">||</text></symbol><symbol id="13"><text y="1.67" class="f">╰─</text><text x="2.004" y="1.67" class="h">❯</text><text x="4.008" y="1.67" class="j">exit</text></symbol><symbol id="a"><path fill="transparent" d="M0 0h46v16H0z"/></symbol><symbol id="b"><path fill="#6f7683" d="M0 0h1.102v2.171H0z"/></symbol></defs><path class="a" d="M0 0h46v34.736H0z"/><g style="animation-duration:6.407605s;animation-iteration-count:infinite;animation-name:o;animation-timing-function:steps(1,end)"><svg width="2438"><svg><use xlink:href="#a"/><use xlink:href="#b" x="-.004"/></svg><svg x="46"><use xlink:href="#a"/><use xlink:href="#b" x="-.004"/></svg><svg x="92"><use xlink:href="#a"/><use xlink:href="#b" x="-.004"/></svg><svg x="138"><use xlink:href="#a"/><use xlink:href="#b" x="-.004"/></svg><svg x="184"><use xlink:href="#a"/><use xlink:href="#b" x="3.996" y="4.317"/><use xlink:href="#1" y="2.171"/><use xlink:href="#2" y="4.342"/></svg><svg x="230"><use xlink:href="#a"/><use xlink:href="#b" x="4.996" y="4.317"/><use xlink:href="#1" y="2.171"/><text y="6.012" class="f">╰─</text><text x="2.004" y="6.012" class="h">❯</text><text x="4.008" y="6.012" class="f">c</text></svg><svg x="276"><use xlink:href="#a"/><use xlink:href="#b" x="4.996" y="4.317"/><use xlink:href="#1" y="2.171"/><text y="6.012" class="f">╰─</text><text x="2.004" y="6.012" class="h">❯</text><text x="4.008" y="6.012" class="q">c</text></svg><svg x="322"><use xlink:href="#a"/><use xlink:href="#b" x="4.996" y="4.317"/><use xlink:href="#1" y="2.171"/><text y="6.012" class="f">╰─</text><text x="2.004" y="6.012" class="h">❯</text><text x="4.008" y="6.012" class="q">c</text><text x="5.01" y="6.012" class="k">at</text></svg><svg x="368"><use xlink:href="#a"/><use xlink:href="#b" x="5.996" y="4.317"/><use xlink:href="#1" y="2.171"/><text y="6.012" class="f">╰─</text><text x="2.004" y="6.012" class="h">❯</text><text x="4.008" y="6.012" class="q">co</text></svg><svg x="414"><use xlink:href="#a"/><use xlink:href="#b" x="5.996" y="4.317"/><use xlink:href="#1" y="2.171"/><text y="6.012" class="f">╰─</text><text x="2.004" y="6.012" class="h">❯</text><text x="4.008" y="6.012" class="q">co</text><text x="6.012" y="6.012" class="k">wsay</text><text x="11.022" y="6.012" class="k">fancy</text></svg><svg x="460"><use xlink:href="#a"/><use xlink:href="#b" x="6.996" y="4.317"/><use xlink:href="#1" y="2.171"/><text y="6.012" class="f">╰─</text><text x="2.004" y="6.012" class="h">❯</text><text x="4.008" y="6.012" class="q">cow</text><text x="7.014" y="6.012" class="k">say</text><text x="11.022" y="6.012" class="k">fancy</text></svg><svg x="506"><use xlink:href="#a"/><use xlink:href="#b" x="7.996" y="4.317"/><use xlink:href="#1" y="2.171"/><text y="6.012" class="f">╰─</text><text x="2.004" y="6.012" class="h">❯</text><text x="4.008" y="6.012" class="q">cows</text><text x="8.016" y="6.012" class="k">ay</text><text x="11.022" y="6.012" class="k">fancy</text></svg><svg x="552"><use xlink:href="#a"/><use xlink:href="#b" x="8.996" y="4.317"/><use xlink:href="#1" y="2.171"/><text y="6.012" class="f">╰─</text><text x="2.004" y="6.012" class="h">❯</text><text x="4.008" y="6.012" class="q">cowsa</text><text x="9.018" y="6.012" class="k">y</text><text x="11.022" y="6.012" class="k">fancy</text></svg><svg x="598"><use xlink:href="#a"/><use xlink:href="#b" x="9.996" y="4.317"/><use xlink:href="#1" y="2.171"/><text y="6.012" class="f">╰─</text><text x="2.004" y="6.012" class="h">❯</text><text x="4.008" y="6.012" class="q">cowsay</text><text x="11.022" y="6.012" class="k">fancy</text></svg><svg x="644"><use xlink:href="#a"/><use xlink:href="#b" x="9.996" y="4.317"/><use xlink:href="#1" y="2.171"/><use xlink:href="#3" y="4.342"/></svg><svg x="690"><use xlink:href="#a"/><use xlink:href="#b" x="10.996" y="4.317"/><use xlink:href="#1" y="2.171"/><use xlink:href="#3" y="4.342"/></svg><svg x="736"><use xlink:href="#a"/><use xlink:href="#b" x="10.996" y="4.317"/><use xlink:href="#1" y="2.171"/><use xlink:href="#3" y="4.342"/></svg><svg x="782"><use xlink:href="#a"/><use xlink:href="#b" x="11.996" y="4.317"/><use xlink:href="#1" y="2.171"/><text y="6.012" class="f">╰─</text><text x="2.004" y="6.012" class="h">❯</text><text x="4.008" y="6.012" class="j">cowsay</text><text x="11.022" y="6.012" class="f">f</text><text x="12.024" y="6.012" class="k">ancy</text></svg><svg x="828"><use xlink:href="#a"/><use xlink:href="#b" x="11.996" y="4.317"/><use xlink:href="#1" y="2.171"/><text y="6.012" class="f">╰─</text><text x="2.004" y="6.012" class="h">❯</text><text x="4.008" y="6.012" class="j">cowsay</text><text x="11.022" y="6.012" class="r">f</text><text x="12.024" y="6.012" class="k">ancy</text></svg><svg x="874"><use xlink:href="#a"/><use xlink:href="#b" x="12.996" y="4.317"/><use xlink:href="#1" y="2.171"/><text y="6.012" class="f">╰─</text><text x="2.004" y="6.012" class="h">❯</text><text x="4.008" y="6.012" class="j">cowsay</text><text x="11.022" y="6.012" class="r">fa</text><text x="13.026" y="6.012" class="k">ncy</text></svg><svg x="920"><use xlink:href="#a"/><use xlink:href="#b" x="12.996" y="4.317"/><use xlink:href="#1" y="2.171"/><text y="6.012" class="f">╰─</text><text x="2.004" y="6.012" class="h">❯</text><text x="4.008" y="6.012" class="j">cowsay</text><text x="11.022" y="6.012" class="l">fa</text><text x="13.026" y="6.012" class="k">ncy</text></svg><svg x="966"><use xlink:href="#a"/><use xlink:href="#b" x="13.996" y="4.317"/><use xlink:href="#1" y="2.171"/><text y="6.012" class="f">╰─</text><text x="2.004" y="6.012" class="h">❯</text><text x="4.008" y="6.012" class="j">cowsay</text><text x="11.022" y="6.012" class="l">fan</text><text x="14.028" y="6.012" class="k">cy</text></svg><svg x="1012"><use xlink:href="#a"/><use xlink:href="#b" x="14.996" y="4.317"/><use xlink:href="#1" y="2.171"/><text y="6.012" class="f">╰─</text><text x="2.004" y="6.012" class="h">❯</text><text x="4.008" y="6.012" class="j">cowsay</text><text x="11.022" y="6.012" class="l">fanc</text><text x="15.03" y="6.012" class="k">y</text></svg><svg x="1058"><use xlink:href="#a"/><use xlink:href="#b" x="15.996" y="4.317"/><use xlink:href="#1" y="2.171"/><use xlink:href="#4" y="4.342"/></svg><svg x="1104"><use xlink:href="#a"/><use xlink:href="#b" x="-.004" y="6.488"/><use xlink:href="#1" y="2.171"/><use xlink:href="#4" y="4.342"/></svg><svg x="1150"><use xlink:href="#a"/><use xlink:href="#b" x="-.004" y="6.488"/><use xlink:href="#1" y="2.171"/><use xlink:href="#4" y="4.342"/></svg><svg x="1196"><use xlink:href="#a"/><use xlink:href="#b" x="-.004" y="6.488"/><use xlink:href="#1" y="2.171"/><use xlink:href="#4" y="4.342"/></svg><svg x="1242"><use xlink:href="#a"/><use xlink:href="#b" x="-.004" y="6.488"/><use xlink:href="#1" y="2.171"/><use xlink:href="#4" y="4.342"/></svg><svg x="1288"><use xlink:href="#a"/><use xlink:href="#b" x="-.004" y="6.488"/><use xlink:href="#1" y="2.171"/><use xlink:href="#4" y="4.342"/></svg><svg x="1334"><use xlink:href="#a"/><use xlink:href="#b" x="-.004" y="6.488"/><use xlink:href="#1" y="2.171"/><use xlink:href="#4" y="4.342"/></svg><svg x="1380"><use xlink:href="#a"/><use xlink:href="#b" x="-.004" y="23.856"/><use xlink:href="#1" y="2.171"/><use xlink:href="#4" y="4.342"/><use xlink:href="#5" y="6.513"/><use xlink:href="#6" y="8.684"/><use xlink:href="#7" y="10.855"/><use xlink:href="#8" y="13.026"/><use xlink:href="#9" y="15.197"/><use xlink:href="#10" y="17.368"/><use xlink:href="#11" y="19.539"/><use xlink:href="#12" y="21.71"/></svg><svg x="1426"><use xlink:href="#a"/><use xlink:href="#b" x="-.004" y="23.856"/><use xlink:href="#1" y="2.171"/><use xlink:href="#4" y="4.342"/><use xlink:href="#5" y="6.513"/><use xlink:href="#6" y="8.684"/><use xlink:href="#7" y="10.855"/><use xlink:href="#8" y="13.026"/><use xlink:href="#9" y="15.197"/><use xlink:href="#10" y="17.368"/><use xlink:href="#11" y="19.539"/><use xlink:href="#12" y="21.71"/></svg><svg x="1472"><use xlink:href="#a"/><use xlink:href="#b" x="-.004" y="23.856"/><use xlink:href="#1" y="2.171"/><use xlink:href="#4" y="4.342"/><use xlink:href="#5" y="6.513"/><use xlink:href="#6" y="8.684"/><use xlink:href="#7" y="10.855"/><use xlink:href="#8" y="13.026"/><use xlink:href="#9" y="15.197"/><use xlink:href="#10" y="17.368"/><use xlink:href="#11" y="19.539"/><use xlink:href="#12" y="21.71"/></svg><svg x="1518"><use xlink:href="#a"/><use xlink:href="#b" x="-.004" y="23.856"/><use xlink:href="#1" y="2.171"/><use xlink:href="#4" y="4.342"/><use xlink:href="#5" y="6.513"/><use xlink:href="#6" y="8.684"/><use xlink:href="#7" y="10.855"/><use xlink:href="#8" y="13.026"/><use xlink:href="#9" y="15.197"/><use xlink:href="#10" y="17.368"/><use xlink:href="#11" y="19.539"/><use xlink:href="#12" y="21.71"/></svg><svg x="1564"><use xlink:href="#a"/><use xlink:href="#b" x="3.996" y="28.198"/><use xlink:href="#1" y="2.171"/><use xlink:href="#4" y="4.342"/><use xlink:href="#5" y="6.513"/><use xlink:href="#6" y="8.684"/><use xlink:href="#7" y="10.855"/><use xlink:href="#8" y="13.026"/><use xlink:href="#9" y="15.197"/><use xlink:href="#10" y="17.368"/><use xlink:href="#11" y="19.539"/><use xlink:href="#12" y="21.71"/><use xlink:href="#1" y="26.052"/><use xlink:href="#2" y="28.223"/></svg><svg x="1610"><use xlink:href="#a"/><use xlink:href="#b" x="4.996" y="28.198"/><use xlink:href="#1" y="2.171"/><use xlink:href="#4" y="4.342"/><use xlink:href="#5" y="6.513"/><use xlink:href="#6" y="8.684"/><use xlink:href="#7" y="10.855"/><use xlink:href="#8" y="13.026"/><use xlink:href="#9" y="15.197"/><use xlink:href="#10" y="17.368"/><use xlink:href="#11" y="19.539"/><use xlink:href="#12" y="21.71"/><use xlink:href="#1" y="26.052"/><text y="29.893" class="f">╰─</text><text x="2.004" y="29.893" class="h">❯</text><text x="4.008" y="29.893" class="f">e</text><text x="5.01" y="29.893" class="k">xit</text></svg><svg x="1656"><use xlink:href="#a"/><use xlink:href="#b" x="4.996" y="28.198"/><use xlink:href="#1" y="2.171"/><use xlink:href="#4" y="4.342"/><use xlink:href="#5" y="6.513"/><use xlink:href="#6" y="8.684"/><use xlink:href="#7" y="10.855"/><use xlink:href="#8" y="13.026"/><use xlink:href="#9" y="15.197"/><use xlink:href="#10" y="17.368"/><use xlink:href="#11" y="19.539"/><use xlink:href="#12" y="21.71"/><use xlink:href="#1" y="26.052"/><text y="29.893" class="f">╰─</text><text x="2.004" y="29.893" class="h">❯</text><text x="4.008" y="29.893" class="q">e</text><text x="5.01" y="29.893" class="k">xit</text></svg><svg x="1702"><use xlink:href="#a"/><use xlink:href="#b" x="5.996" y="28.198"/><use xlink:href="#1" y="2.171"/><use xlink:href="#4" y="4.342"/><use xlink:href="#5" y="6.513"/><use xlink:href="#6" y="8.684"/><use xlink:href="#7" y="10.855"/><use xlink:href="#8" y="13.026"/><use xlink:href="#9" y="15.197"/><use xlink:href="#10" y="17.368"/><use xlink:href="#11" y="19.539"/><use xlink:href="#12" y="21.71"/><use xlink:href="#1" y="26.052"/><text y="29.893" class="f">╰─</text><text x="2.004" y="29.893" class="h">❯</text><text x="4.008" y="29.893" class="q">ex</text><text x="6.012" y="29.893" class="k">it</text></svg><svg x="1748"><use xlink:href="#a"/><use xlink:href="#b" x="5.996" y="28.198"/><use xlink:href="#1" y="2.171"/><use xlink:href="#4" y="4.342"/><use xlink:href="#5" y="6.513"/><use xlink:href="#6" y="8.684"/><use xlink:href="#7" y="10.855"/><use xlink:href="#8" y="13.026"/><use xlink:href="#9" y="15.197"/><use xlink:href="#10" y="17.368"/><use xlink:href="#11" y="19.539"/><use xlink:href="#12" y="21.71"/><use xlink:href="#1" y="26.052"/><text y="29.893" class="f">╰─</text><text x="2.004" y="29.893" class="h">❯</text><text x="4.008" y="29.893" class="j">ex</text><text x="6.012" y="29.893" class="k">it</text></svg><svg x="1794"><use xlink:href="#a"/><use xlink:href="#b" x="6.996" y="28.198"/><use xlink:href="#1" y="2.171"/><use xlink:href="#4" y="4.342"/><use xlink:href="#5" y="6.513"/><use xlink:href="#6" y="8.684"/><use xlink:href="#7" y="10.855"/><use xlink:href="#8" y="13.026"/><use xlink:href="#9" y="15.197"/><use xlink:href="#10" y="17.368"/><use xlink:href="#11" y="19.539"/><use xlink:href="#12" y="21.71"/><use xlink:href="#1" y="26.052"/><text y="29.893" class="f">╰─</text><text x="2.004" y="29.893" class="h">❯</text><text x="4.008" y="29.893" class="j">exi</text><text x="7.014" y="29.893" class="k">t</text></svg><svg x="1840"><use xlink:href="#a"/><use xlink:href="#b" x="6.996" y="28.198"/><use xlink:href="#1" y="2.171"/><use xlink:href="#4" y="4.342"/><use xlink:href="#5" y="6.513"/><use xlink:href="#6" y="8.684"/><use xlink:href="#7" y="10.855"/><use xlink:href="#8" y="13.026"/><use xlink:href="#9" y="15.197"/><use xlink:href="#10" y="17.368"/><use xlink:href="#11" y="19.539"/><use xlink:href="#12" y="21.71"/><use xlink:href="#1" y="26.052"/><text y="29.893" class="f">╰─</text><text x="2.004" y="29.893" class="h">❯</text><text x="4.008" y="29.893" class="q">exi</text><text x="7.014" y="29.893" class="k">t</text></svg><svg x="1886"><use xlink:href="#a"/><use xlink:href="#b" x="7.996" y="28.198"/><use xlink:href="#1" y="2.171"/><use xlink:href="#4" y="4.342"/><use xlink:href="#5" y="6.513"/><use xlink:href="#6" y="8.684"/><use xlink:href="#7" y="10.855"/><use xlink:href="#8" y="13.026"/><use xlink:href="#9" y="15.197"/><use xlink:href="#10" y="17.368"/><use xlink:href="#11" y="19.539"/><use xlink:href="#12" y="21.71"/><use xlink:href="#1" y="26.052"/><text y="29.893" class="f">╰─</text><text x="2.004" y="29.893" class="h">❯</text><text x="4.008" y="29.893" class="q">exit</text></svg><svg x="1932"><use xlink:href="#a"/><use xlink:href="#b" x="7.996" y="28.198"/><use xlink:href="#1" y="2.171"/><use xlink:href="#4" y="4.342"/><use xlink:href="#5" y="6.513"/><use xlink:href="#6" y="8.684"/><use xlink:href="#7" y="10.855"/><use xlink:href="#8" y="13.026"/><use xlink:href="#9" y="15.197"/><use xlink:href="#10" y="17.368"/><use xlink:href="#11" y="19.539"/><use xlink:href="#12" y="21.71"/><use xlink:href="#1" y="26.052"/><use xlink:href="#13" y="28.223"/></svg><svg x="1978"><use xlink:href="#a"/><use xlink:href="#b" x="8.996" y="28.198"/><use xlink:href="#1" y="2.171"/><use xlink:href="#4" y="4.342"/><use xlink:href="#5" y="6.513"/><use xlink:href="#6" y="8.684"/><use xlink:href="#7" y="10.855"/><use xlink:href="#8" y="13.026"/><use xlink:href="#9" y="15.197"/><use xlink:href="#10" y="17.368"/><use xlink:href="#11" y="19.539"/><use xlink:href="#12" y="21.71"/><use xlink:href="#1" y="26.052"/><use xlink:href="#13" y="28.223"/></svg><svg x="2024"><use xlink:href="#a"/><use xlink:href="#b" x="8.996" y="28.198"/><use xlink:href="#1" y="2.171"/><use xlink:href="#4" y="4.342"/><use xlink:href="#5" y="6.513"/><use xlink:href="#6" y="8.684"/><use xlink:href="#7" y="10.855"/><use xlink:href="#8" y="13.026"/><use xlink:href="#9" y="15.197"/><use xlink:href="#10" y="17.368"/><use xlink:href="#11" y="19.539"/><use xlink:href="#12" y="21.71"/><use xlink:href="#1" y="26.052"/><use xlink:href="#13" y="28.223"/></svg><svg x="2070"><use xlink:href="#a"/><use xlink:href="#b" x="8.996" y="28.198"/><use xlink:href="#1" y="2.171"/><use xlink:href="#4" y="4.342"/><use xlink:href="#5" y="6.513"/><use xlink:href="#6" y="8.684"/><use xlink:href="#7" y="10.855"/><use xlink:href="#8" y="13.026"/><use xlink:href="#9" y="15.197"/><use xlink:href="#10" y="17.368"/><use xlink:href="#11" y="19.539"/><use xlink:href="#12" y="21.71"/><use xlink:href="#1" y="26.052"/><text y="29.893" class="f">╰─</text><text x="2.004" y="29.893" class="h">❯</text><text x="4.008" y="29.893" class="j">exit</text><text x="9.018" y="29.893" class="k">0</text></svg><svg x="2116"><use xlink:href="#a"/><use xlink:href="#b" x="7.996" y="28.198"/><use xlink:href="#1" y="2.171"/><use xlink:href="#4" y="4.342"/><use xlink:href="#5" y="6.513"/><use xlink:href="#6" y="8.684"/><use xlink:href="#7" y="10.855"/><use xlink:href="#8" y="13.026"/><use xlink:href="#9" y="15.197"/><use xlink:href="#10" y="17.368"/><use xlink:href="#11" y="19.539"/><use xlink:href="#12" y="21.71"/><use xlink:href="#1" y="26.052"/><use xlink:href="#13" y="28.223"/></svg><svg x="2162"><use xlink:href="#a"/><use xlink:href="#b" x="-.004" y="30.369"/><use xlink:href="#1" y="2.171"/><use xlink:href="#4" y="4.342"/><use xlink:href="#5" y="6.513"/><use xlink:href="#6" y="8.684"/><use xlink:href="#7" y="10.855"/><use xlink:href="#8" y="13.026"/><use xlink:href="#9" y="15.197"/><use xlink:href="#10" y="17.368"/><use xlink:href="#11" y="19.539"/><use xlink:href="#12" y="21.71"/><use xlink:href="#1" y="26.052"/><use xlink:href="#13" y="28.223"/></svg><svg x="2208"><use xlink:href="#a"/><use xlink:href="#b" x="-.004" y="30.369"/><use xlink:href="#1" y="2.171"/><use xlink:href="#4" y="4.342"/><use xlink:href="#5" y="6.513"/><use xlink:href="#6" y="8.684"/><use xlink:href="#7" y="10.855"/><use xlink:href="#8" y="13.026"/><use xlink:href="#9" y="15.197"/><use xlink:href="#10" y="17.368"/><use xlink:href="#11" y="19.539"/><use xlink:href="#12" y="21.71"/><use xlink:href="#1" y="26.052"/><use xlink:href="#13" y="28.223"/></svg><svg x="2254"><use xlink:href="#a"/><use xlink:href="#b" x="-.004" y="30.369"/><use xlink:href="#1" y="2.171"/><use xlink:href="#4" y="4.342"/><use xlink:href="#5" y="6.513"/><use xlink:href="#6" y="8.684"/><use xlink:href="#7" y="10.855"/><use xlink:href="#8" y="13.026"/><use xlink:href="#9" y="15.197"/><use xlink:href="#10" y="17.368"/><use xlink:href="#11" y="19.539"/><use xlink:href="#12" y="21.71"/><use xlink:href="#1" y="26.052"/><use xlink:href="#13" y="28.223"/></svg><svg x="2300"><use xlink:href="#a"/><use xlink:href="#b" x="-.004" y="30.369"/><use xlink:href="#1" y="2.171"/><use xlink:href="#4" y="4.342"/><use xlink:href="#5" y="6.513"/><use xlink:href="#6" y="8.684"/><use xlink:href="#7" y="10.855"/><use xlink:href="#8" y="13.026"/><use xlink:href="#9" y="15.197"/><use xlink:href="#10" y="17.368"/><use xlink:href="#11" y="19.539"/><use xlink:href="#12" y="21.71"/><use xlink:href="#1" y="26.052"/><use xlink:href="#13" y="28.223"/></svg><svg x="2346"><use xlink:href="#a"/><use xlink:href="#b" x="-.004" y="30.369"/><use xlink:href="#1" y="2.171"/><use xlink:href="#4" y="4.342"/><use xlink:href="#5" y="6.513"/><use xlink:href="#6" y="8.684"/><use xlink:href="#7" y="10.855"/><use xlink:href="#8" y="13.026"/><use xlink:href="#9" y="15.197"/><use xlink:href="#10" y="17.368"/><use xlink:href="#11" y="19.539"/><use xlink:href="#12" y="21.71"/><use xlink:href="#1" y="26.052"/><use xlink:href="#13" y="28.223"/></svg><svg x="2392"><use xlink:href="#a"/><use xlink:href="#b" x="-.004" y="30.369"/><use xlink:href="#1" y="2.171"/><use xlink:href="#4" y="4.342"/><use xlink:href="#5" y="6.513"/><use xlink:href="#6" y="8.684"/><use xlink:href="#7" y="10.855"/><use xlink:href="#8" y="13.026"/><use xlink:href="#9" y="15.197"/><use xlink:href="#10" y="17.368"/><use xlink:href="#11" y="19.539"/><use xlink:href="#12" y="21.71"/><use xlink:href="#1" y="26.052"/><use xlink:href="#13" y="28.223"/></svg></svg></g></g></svg></svg>